<?xml version="1.0" encoding="UTF-8"?>
<!DOCTYPE svg PUBLIC "-//W3C//DTD SVG 1.1//EN" "http://www.w3.org/Graphics/SVG/1.1/DTD/svg11.dtd">
<svg xmlns="http://www.w3.org/2000/svg" viewBox="0 0 518 289" version="1.1" width="36" height="20" preserveAspectRatio="xMidYMid meet">
 <g id="#37c7feff">
  <path fill="#37c7fe" opacity="1.00" d=" M 140.89 0.00 L 373.67 0.00 C 402.07 0.44 430.32 9.15 453.86 25.09 C 479.97 42.57 500.32 68.66 510.37 98.47 C 515.08 111.93 517.43 126.14 518.00 140.37 L 518.00 148.61 C 517.01 186.01 500.55 222.62 473.31 248.26 C 447.26 273.37 411.65 287.93 375.54 289.00 L 145.32 289.00 C 119.80 288.59 94.38 281.58 72.41 268.56 C 45.24 252.66 23.36 227.75 11.49 198.57 C -0.03 170.75 -2.23 139.24 5.05 110.04 C 13.47 75.52 35.50 44.73 65.02 25.06 C 87.36 9.87 113.97 1.48 140.89 0.00 M 128.29 35.21 C 128.29 69.98 128.27 104.76 128.31 139.53 C 144.79 139.54 161.27 139.54 177.75 139.54 C 177.78 104.76 177.77 69.98 177.76 35.21 C 161.27 35.19 144.78 35.19 128.29 35.21 M 302.39 43.51 C 295.28 44.89 289.70 50.55 286.92 57.04 C 285.56 60.84 285.54 64.96 285.47 68.96 C 285.47 115.96 285.47 162.97 285.47 209.98 C 285.48 214.34 285.25 218.77 286.24 223.05 C 287.55 229.47 291.56 235.44 297.39 238.56 C 302.43 241.29 308.43 241.44 313.96 240.55 C 320.70 239.26 326.36 234.22 328.88 227.91 C 330.78 223.52 331.05 218.67 331.00 213.95 C 331.01 184.86 330.98 155.78 331.01 126.70 C 358.38 161.10 385.58 195.62 412.93 230.04 C 416.58 234.35 420.30 239.18 425.85 241.07 C 437.57 244.81 451.47 238.13 455.66 226.53 C 457.08 221.47 456.63 216.16 456.80 210.97 C 456.79 162.98 456.84 114.99 456.78 67.01 C 456.90 57.88 452.04 48.24 443.26 44.75 C 435.23 41.70 425.08 42.48 418.71 48.68 C 413.49 53.60 411.35 60.96 411.26 67.97 C 411.20 98.06 411.29 128.16 411.22 158.26 C 383.27 123.72 355.42 89.08 327.49 54.52 C 324.78 51.26 321.92 48.00 318.26 45.78 C 313.52 42.97 307.72 42.60 302.39 43.51 M 79.38 72.38 C 60.62 91.40 49.80 118.17 50.86 144.94 C 51.20 167.62 60.24 189.83 75.08 206.87 C 91.30 225.43 114.36 238.01 138.84 241.17 C 158.86 243.72 179.72 240.89 197.85 231.81 C 223.75 219.46 244.10 195.74 251.61 167.95 C 257.58 145.42 255.48 120.72 245.34 99.69 C 234.81 77.53 215.21 60.47 192.96 50.65 C 192.96 68.05 192.87 85.44 193.00 102.84 C 204.82 114.48 210.97 131.53 209.13 148.05 C 207.40 166.30 195.61 183.00 179.42 191.40 C 167.66 197.77 153.62 199.35 140.60 196.61 C 124.49 193.06 109.91 182.40 102.26 167.69 C 95.85 155.70 94.20 141.25 97.86 128.15 C 100.08 119.55 104.89 111.97 110.25 105.02 C 110.48 86.97 110.30 68.91 110.33 50.86 C 98.85 56.11 88.22 63.32 79.38 72.38 Z"/>
 </g>
 <g id="#fefefeff">
  <path fill="#fefefe" opacity="1.00" d=" M 128.29 35.21 C 144.78 35.19 161.27 35.19 177.76 35.21 C 177.77 69.98 177.78 104.76 177.75 139.54 C 161.27 139.54 144.79 139.54 128.31 139.53 C 128.27 104.76 128.29 69.98 128.29 35.21 Z"/>
  <path fill="#fefefe" opacity="1.00" d=" M 302.39 43.51 C 307.72 42.60 313.52 42.97 318.26 45.78 C 321.92 48.00 324.78 51.26 327.49 54.52 C 355.42 89.08 383.27 123.72 411.22 158.26 C 411.29 128.16 411.20 98.06 411.26 67.97 C 411.35 60.96 413.49 53.60 418.71 48.68 C 425.08 42.48 435.23 41.70 443.26 44.75 C 452.04 48.24 456.90 57.88 456.78 67.01 C 456.84 114.99 456.79 162.98 456.80 210.97 C 456.63 216.16 457.08 221.47 455.66 226.53 C 451.47 238.13 437.57 244.81 425.85 241.07 C 420.30 239.18 416.58 234.35 412.93 230.04 C 385.58 195.62 358.38 161.10 331.01 126.70 C 330.98 155.78 331.01 184.86 331.00 213.95 C 331.05 218.67 330.78 223.52 328.88 227.91 C 326.36 234.22 320.70 239.26 313.96 240.55 C 308.43 241.44 302.43 241.29 297.39 238.56 C 291.56 235.44 287.55 229.47 286.24 223.05 C 285.25 218.77 285.48 214.34 285.47 209.98 C 285.47 162.97 285.47 115.96 285.47 68.96 C 285.54 64.96 285.56 60.84 286.92 57.04 C 289.70 50.55 295.28 44.89 302.39 43.51 Z"/>
  <path fill="#fefefe" opacity="1.00" d=" M 79.38 72.38 C 88.22 63.32 98.85 56.11 110.33 50.86 C 110.30 68.91 110.48 86.97 110.25 105.02 C 104.89 111.97 100.08 119.55 97.86 128.15 C 94.20 141.25 95.85 155.70 102.26 167.69 C 109.91 182.40 124.49 193.06 140.60 196.61 C 153.62 199.35 167.66 197.77 179.42 191.40 C 195.61 183.00 207.40 166.30 209.13 148.05 C 210.97 131.53 204.82 114.48 193.00 102.84 C 192.87 85.44 192.96 68.05 192.96 50.65 C 215.21 60.47 234.81 77.53 245.34 99.69 C 255.48 120.72 257.58 145.42 251.61 167.95 C 244.10 195.74 223.75 219.46 197.85 231.81 C 179.72 240.89 158.86 243.72 138.84 241.17 C 114.36 238.01 91.30 225.43 75.08 206.87 C 60.24 189.83 51.20 167.62 50.86 144.94 C 49.80 118.17 60.62 91.40 79.38 72.38 Z"/>
 </g>
</svg>
