<?xml version="1.0" encoding="UTF-8"?>
<!DOCTYPE svg PUBLIC "-//W3C//DTD SVG 1.1//EN" "http://www.w3.org/Graphics/SVG/1.1/DTD/svg11.dtd">
<svg xmlns="http://www.w3.org/2000/svg" viewBox="0 0 1774 289" version="1.1" width="160" height="26" preserveAspectRatio="xMidYMid meet">
 <g id="#37c7feff">
  <path fill="#37c7fe" opacity="1.00" d=" M 1398.48 0.00 L 1629.66 0.00 C 1663.81 0.46 1697.65 13.14 1723.52 35.47 C 1754.09 61.31 1772.99 100.34 1774.00 140.40 L 1774.00 148.56 C 1773.04 184.59 1757.77 219.90 1732.29 245.37 C 1705.95 272.17 1669.04 287.93 1631.53 289.00 L 1401.34 289.00 C 1364.11 288.54 1327.24 273.47 1300.62 247.39 C 1290.18 237.12 1280.78 225.50 1274.27 212.33 C 1273.43 210.35 1272.39 208.48 1271.27 206.67 C 1262.38 189.18 1257.69 169.57 1257.03 149.99 C 1259.13 144.95 1259.26 139.27 1257.55 134.10 C 1257.52 133.59 1257.48 132.56 1257.46 132.05 C 1260.31 95.10 1278.79 59.88 1306.88 35.84 C 1332.13 13.85 1365.06 1.20 1398.48 0.00 M 1384.30 35.20 C 1384.29 69.98 1384.27 104.76 1384.31 139.53 C 1400.79 139.54 1417.27 139.54 1433.76 139.54 C 1433.78 104.76 1433.77 69.98 1433.76 35.20 C 1417.27 35.19 1400.78 35.19 1384.30 35.20 M 1552.59 45.72 C 1545.61 49.85 1541.13 57.78 1541.53 65.94 C 1541.38 115.27 1541.52 164.61 1541.46 213.95 C 1541.33 219.70 1542.15 225.69 1545.22 230.67 C 1551.35 241.72 1567.31 244.13 1577.43 237.36 C 1583.93 232.85 1587.02 224.74 1586.96 217.03 C 1587.05 186.91 1586.96 156.78 1587.01 126.66 C 1614.51 161.29 1641.90 196.02 1669.42 230.64 C 1673.83 236.13 1679.38 242.08 1687.02 241.97 C 1699.91 243.30 1713.45 232.42 1712.68 218.98 C 1712.97 170.00 1712.72 121.01 1712.81 72.03 C 1712.79 67.99 1712.94 63.87 1711.86 59.94 C 1710.08 52.26 1704.02 45.53 1696.23 43.76 C 1689.29 42.22 1681.32 43.00 1675.75 47.76 C 1669.84 52.61 1667.34 60.46 1667.27 67.89 C 1667.20 98.01 1667.29 128.13 1667.22 158.26 C 1639.27 123.72 1611.43 89.09 1583.51 54.54 C 1579.70 49.94 1575.34 45.13 1569.28 43.75 C 1563.73 42.51 1557.59 42.81 1552.59 45.72 M 1318.48 95.43 C 1309.61 111.73 1305.71 130.57 1307.05 149.06 C 1308.89 181.90 1329.03 212.54 1357.59 228.52 C 1377.76 240.33 1402.01 244.35 1425.04 240.87 C 1456.64 236.06 1485.55 215.56 1500.12 187.03 C 1517.46 154.27 1513.68 111.52 1490.62 82.45 C 1479.64 68.63 1465.09 57.73 1448.96 50.65 C 1448.96 68.05 1448.86 85.46 1449.01 102.86 C 1466.27 119.50 1470.62 147.82 1458.63 168.69 C 1449.60 185.23 1431.84 196.71 1412.98 197.76 C 1393.18 199.37 1372.98 189.72 1361.71 173.38 C 1351.00 158.23 1348.85 137.48 1356.58 120.56 C 1358.89 114.84 1362.70 109.96 1366.25 104.98 C 1366.49 86.95 1366.29 68.89 1366.34 50.85 C 1346.09 59.96 1328.83 75.73 1318.48 95.43 Z"/>
 </g>
 <g id="#fefefeff">
  <path fill="#fefefe" opacity="1.00" d=" M 1384.30 35.20 C 1400.78 35.19 1417.27 35.19 1433.76 35.20 C 1433.77 69.98 1433.78 104.76 1433.76 139.54 C 1417.27 139.54 1400.79 139.54 1384.31 139.53 C 1384.27 104.76 1384.29 69.98 1384.30 35.20 Z"/>
  <path fill="#fefefe" opacity="1.00" d=" M 1552.59 45.72 C 1557.59 42.81 1563.73 42.51 1569.28 43.75 C 1575.34 45.13 1579.70 49.94 1583.51 54.54 C 1611.43 89.09 1639.27 123.72 1667.22 158.26 C 1667.29 128.13 1667.20 98.01 1667.27 67.89 C 1667.34 60.46 1669.84 52.61 1675.75 47.76 C 1681.32 43.00 1689.29 42.22 1696.23 43.76 C 1704.02 45.53 1710.08 52.26 1711.86 59.94 C 1712.94 63.87 1712.79 67.99 1712.81 72.03 C 1712.72 121.01 1712.97 170.00 1712.68 218.98 C 1713.45 232.42 1699.91 243.30 1687.02 241.97 C 1679.38 242.08 1673.83 236.13 1669.42 230.64 C 1641.90 196.02 1614.51 161.29 1587.01 126.66 C 1586.96 156.78 1587.05 186.91 1586.96 217.03 C 1587.02 224.74 1583.93 232.85 1577.43 237.36 C 1567.31 244.13 1551.35 241.72 1545.22 230.67 C 1542.15 225.69 1541.33 219.70 1541.46 213.95 C 1541.52 164.61 1541.38 115.27 1541.53 65.94 C 1541.13 57.78 1545.61 49.85 1552.59 45.72 Z"/>
  <path fill="#fefefe" opacity="1.00" d=" M 1318.48 95.43 C 1328.83 75.73 1346.09 59.96 1366.34 50.85 C 1366.29 68.89 1366.49 86.95 1366.25 104.98 C 1362.70 109.96 1358.89 114.84 1356.58 120.56 C 1348.85 137.48 1351.00 158.23 1361.71 173.38 C 1372.98 189.72 1393.18 199.37 1412.98 197.76 C 1431.84 196.71 1449.60 185.23 1458.63 168.69 C 1470.62 147.82 1466.27 119.50 1449.01 102.86 C 1448.86 85.46 1448.96 68.05 1448.96 50.65 C 1465.09 57.73 1479.64 68.63 1490.62 82.45 C 1513.68 111.52 1517.46 154.27 1500.12 187.03 C 1485.55 215.56 1456.64 236.06 1425.04 240.87 C 1402.01 244.35 1377.76 240.33 1357.59 228.52 C 1329.03 212.54 1308.89 181.90 1307.05 149.06 C 1305.71 130.57 1309.61 111.73 1318.48 95.43 Z"/>
 </g>
 <g id="#6967ceff">
  <path fill="#6967ce" opacity="1.00" d=" M 84.55 45.77 C 103.06 42.84 122.44 44.81 139.73 52.17 C 151.75 57.33 162.79 64.73 172.17 73.83 C 176.99 78.63 181.16 84.87 180.79 91.96 C 181.32 100.83 175.16 109.24 166.94 112.21 C 160.86 114.34 153.86 113.94 148.22 110.76 C 143.95 108.56 140.65 105.01 137.10 101.85 C 128.50 94.21 117.30 89.80 105.90 88.71 C 88.36 87.02 70.08 94.26 58.81 107.88 C 50.66 117.67 45.44 130.17 45.47 143.01 C 45.18 154.49 49.04 165.91 55.73 175.20 C 66.66 190.26 85.34 199.41 103.97 198.45 C 112.54 197.93 121.01 195.60 128.64 191.65 C 135.28 188.25 140.11 182.40 145.81 177.75 C 152.51 172.26 162.41 170.92 170.24 174.70 C 177.47 178.17 182.87 185.83 182.54 194.01 C 182.83 201.28 178.23 207.46 173.55 212.54 C 159.51 226.96 140.79 236.40 121.18 240.50 C 98.39 245.18 73.96 241.66 53.60 230.36 C 33.63 219.71 17.29 202.31 8.31 181.50 C 0.01 162.90 -1.53 141.63 2.74 121.81 C 8.03 98.54 22.18 77.45 41.65 63.65 C 54.34 54.55 69.10 48.26 84.55 45.77 Z"/>
  <path fill="#6967ce" opacity="1.00" d=" M 219.86 47.57 C 228.58 43.78 240.15 44.89 246.56 52.44 C 250.80 57.19 252.41 63.69 252.48 69.93 C 252.52 87.12 252.48 104.31 252.50 121.50 C 276.75 121.50 301.00 121.52 325.25 121.49 C 325.24 103.98 325.27 86.47 325.24 68.96 C 325.20 62.47 327.31 55.69 332.16 51.18 C 337.21 46.02 345.04 44.76 351.93 45.86 C 358.95 46.75 365.15 51.73 367.86 58.23 C 370.31 63.46 370.30 69.38 370.25 75.03 C 370.24 121.70 370.25 168.37 370.25 215.04 C 370.20 223.80 367.20 233.53 359.43 238.43 C 350.55 243.66 337.51 242.47 330.85 234.17 C 327.11 229.71 325.26 223.83 325.24 218.05 C 325.26 199.37 325.25 180.69 325.25 162.00 C 301.00 162.00 276.74 161.98 252.49 162.01 C 252.51 178.67 252.48 195.32 252.50 211.97 C 252.64 219.15 252.26 226.93 247.85 232.94 C 239.88 244.54 220.18 244.40 212.19 232.90 C 209.00 228.65 207.54 223.29 207.50 218.03 C 207.51 168.34 207.50 118.65 207.50 68.96 C 207.60 60.40 211.78 51.29 219.86 47.57 Z"/>
  <path fill="#6967ce" opacity="1.00" d=" M 625.70 52.74 C 632.44 44.49 645.85 43.29 654.13 49.85 C 658.09 53.12 660.81 57.66 662.58 62.43 C 673.06 90.74 683.48 119.07 694.01 147.37 C 703.70 121.21 713.25 94.99 722.89 68.81 C 725.15 62.34 727.75 55.70 732.65 50.74 C 740.48 43.21 754.58 44.15 761.67 52.27 C 765.79 56.56 767.64 62.38 768.95 68.04 C 780.77 115.40 792.63 162.75 804.46 210.11 C 805.49 214.30 805.75 218.66 805.38 222.95 C 804.30 231.25 797.46 238.16 789.50 240.26 C 781.60 242.32 772.37 240.28 766.89 234.00 C 762.52 229.21 760.92 222.75 759.57 216.59 C 753.26 191.32 747.17 166.00 740.73 140.77 C 733.75 163.16 726.61 185.51 719.55 207.88 C 717.29 214.77 715.39 221.79 712.70 228.53 C 710.60 233.74 706.39 238.13 701.09 240.09 C 695.00 242.26 687.69 241.50 682.62 237.32 C 677.50 233.20 674.97 226.86 673.12 220.75 C 664.82 194.02 656.35 167.34 648.12 140.59 C 642.37 164.77 636.53 188.93 630.75 213.10 C 628.95 220.23 627.76 227.98 622.84 233.76 C 614.00 244.44 594.92 243.19 587.44 231.53 C 582.32 224.06 583.59 214.36 586.09 206.18 C 597.17 160.11 608.19 114.03 619.24 67.95 C 620.34 62.53 621.93 56.96 625.70 52.74 Z"/>
  <path fill="#6967ce" opacity="1.00" d=" M 998.45 52.45 C 1004.36 45.57 1014.61 44.25 1022.93 46.78 C 1031.82 49.60 1037.14 58.97 1037.25 67.96 C 1037.25 111.64 1037.25 155.32 1037.25 198.99 C 1056.50 199.00 1075.75 199.01 1095.01 198.99 C 1100.44 199.01 1106.06 200.25 1110.55 203.46 C 1120.85 210.62 1120.65 228.27 1110.32 235.32 C 1106.21 238.33 1101.00 239.42 1095.99 239.50 C 1069.98 239.49 1043.98 239.51 1017.97 239.49 C 1010.57 239.29 1002.52 237.35 997.58 231.42 C 993.09 226.05 992.31 218.77 992.25 212.03 C 992.25 165.35 992.25 118.66 992.26 71.97 C 992.32 65.07 993.69 57.74 998.45 52.45 Z"/>
  <path fill="#6967ce" opacity="1.00" d=" M 473.87 48.14 C 482.49 45.31 492.99 46.82 499.45 53.54 C 502.88 56.81 504.44 61.40 506.49 65.56 C 528.33 112.37 550.34 159.10 572.13 205.94 C 576.34 214.19 577.20 225.25 570.70 232.58 C 563.63 241.46 549.92 243.64 540.35 237.64 C 536.16 234.84 532.97 230.70 530.91 226.13 C 528.00 219.63 524.96 213.18 521.90 206.74 C 495.86 206.76 469.82 206.74 443.78 206.75 C 441.18 212.80 438.46 218.80 435.98 224.90 C 432.80 232.39 426.48 239.19 418.10 240.41 C 407.66 242.50 396.11 236.51 392.35 226.46 C 390.32 220.97 391.15 214.82 393.35 209.51 C 416.13 159.58 438.71 109.55 461.45 59.59 C 463.89 54.37 468.31 49.92 473.87 48.14 M 482.82 113.84 C 475.22 132.06 467.60 150.27 459.98 168.48 C 475.43 168.53 490.89 168.50 506.34 168.50 C 498.43 150.31 490.77 132.01 482.82 113.84 Z"/>
  <path fill="#6967ce" opacity="1.00" d=" M 841.15 55.03 C 846.13 48.90 854.49 47.12 862.03 47.24 C 889.35 47.29 916.68 47.21 944.01 47.27 C 952.00 47.45 960.66 51.18 964.07 58.84 C 967.10 66.20 966.25 75.64 960.47 81.44 C 956.21 85.83 949.98 87.64 944.00 87.74 C 922.84 87.76 901.67 87.74 880.51 87.75 C 880.49 99.58 880.49 111.42 880.51 123.25 C 896.68 123.25 912.85 123.27 929.03 123.24 C 934.41 123.17 940.03 124.29 944.45 127.53 C 953.52 133.85 953.26 149.16 944.56 155.66 C 940.48 158.91 935.11 160.02 930.00 160.01 C 913.49 160.00 896.99 159.98 880.49 160.02 C 880.50 173.01 880.50 186.00 880.49 198.99 C 902.00 199.02 923.51 198.98 945.03 199.01 C 951.54 199.16 958.32 201.30 962.84 206.20 C 967.73 211.39 968.46 219.35 966.54 225.97 C 964.56 232.46 958.63 237.10 952.17 238.63 C 947.87 239.76 943.41 239.48 939.02 239.50 C 913.32 239.50 887.62 239.49 861.92 239.50 C 854.47 239.40 846.33 237.64 841.19 231.82 C 836.67 226.72 835.58 219.63 835.52 213.04 C 835.48 168.69 835.52 124.35 835.50 80.00 C 835.40 71.48 835.44 61.96 841.15 55.03 Z"/>
  <path fill="#6967ce" opacity="1.00" d=" M 1149.85 53.82 C 1154.57 49.04 1161.50 47.40 1168.03 47.26 C 1192.67 47.24 1217.32 47.26 1241.96 47.25 C 1250.13 47.13 1259.18 46.65 1266.05 51.89 C 1274.13 57.63 1275.35 69.65 1270.84 77.96 C 1267.08 84.52 1259.31 87.61 1252.03 87.73 C 1230.77 87.79 1209.51 87.72 1188.25 87.75 C 1188.24 99.58 1188.24 111.41 1188.25 123.25 C 1204.82 123.27 1221.39 123.24 1237.96 123.25 C 1245.72 123.23 1254.15 126.69 1257.55 134.10 C 1259.26 139.27 1259.13 144.95 1257.03 149.99 C 1253.62 156.51 1246.18 159.94 1239.03 159.98 C 1222.10 160.04 1205.17 159.97 1188.25 160.01 C 1188.25 173.00 1188.25 186.00 1188.25 198.99 C 1209.83 199.03 1231.42 198.96 1253.00 199.02 C 1259.80 199.12 1266.48 201.81 1271.27 206.67 C 1272.39 208.48 1273.43 210.35 1274.27 212.33 C 1275.82 218.69 1275.55 226.05 1271.34 231.38 C 1267.08 236.95 1259.89 239.44 1253.07 239.49 C 1225.39 239.51 1197.70 239.48 1170.02 239.51 C 1162.51 239.46 1154.26 237.84 1149.02 232.01 C 1144.12 226.62 1143.06 218.98 1143.24 211.97 C 1143.27 165.65 1143.24 119.33 1143.25 73.01 C 1143.36 66.17 1144.94 58.89 1149.85 53.82 Z"/>
 </g>
</svg>
